<?xml version="1.0" encoding="UTF-8" standalone="no"?><svg xmlns="http://www.w3.org/2000/svg" xmlns:xlink="http://www.w3.org/1999/xlink" contentScriptType="application/ecmascript" contentStyleType="text/css" height="537px" preserveAspectRatio="none" style="width:429px;height:537px;" version="1.1" viewBox="0 0 429 537" width="429px" zoomAndPan="magnify"><defs><filter height="300%" id="fbwxt2guw8w62" width="300%" x="-1" y="-1"><feGaussianBlur result="blurOut" stdDeviation="2.0"/><feColorMatrix in="blurOut" result="blurOut2" type="matrix" values="0 0 0 0 0 0 0 0 0 0 0 0 0 0 0 0 0 0 .4 0"/><feOffset dx="4.0" dy="4.0" in="blurOut2" result="blurOut3"/><feBlend in="SourceGraphic" in2="blurOut3" mode="normal"/></filter></defs><g><line style="stroke: #A80036; stroke-width: 1.0; stroke-dasharray: 5.0,5.0;" x1="136" x2="136" y1="38.2969" y2="497.2891"/><line style="stroke: #A80036; stroke-width: 1.0; stroke-dasharray: 5.0,5.0;" x1="332" x2="332" y1="38.2969" y2="497.2891"/><rect fill="#FEFECE" filter="url(#fbwxt2guw8w62)" height="30.2969" style="stroke: #A80036; stroke-width: 1.5;" width="65" x="102" y="3"/><text fill="#000000" font-family="sans-serif" font-size="14" lengthAdjust="spacingAndGlyphs" textLength="51" x="109" y="22.9951">asiakas</text><rect fill="#FEFECE" filter="url(#fbwxt2guw8w62)" height="30.2969" style="stroke: #A80036; stroke-width: 1.5;" width="65" x="102" y="496.2891"/><text fill="#000000" font-family="sans-serif" font-size="14" lengthAdjust="spacingAndGlyphs" textLength="51" x="109" y="516.2842">asiakas</text><rect fill="#FEFECE" filter="url(#fbwxt2guw8w62)" height="30.2969" style="stroke: #A80036; stroke-width: 1.5;" width="65" x="298" y="3"/><text fill="#000000" font-family="sans-serif" font-size="14" lengthAdjust="spacingAndGlyphs" textLength="51" x="305" y="22.9951">palvelin</text><rect fill="#FEFECE" filter="url(#fbwxt2guw8w62)" height="30.2969" style="stroke: #A80036; stroke-width: 1.5;" width="65" x="298" y="496.2891"/><text fill="#000000" font-family="sans-serif" font-size="14" lengthAdjust="spacingAndGlyphs" textLength="51" x="305" y="516.2842">palvelin</text><path d="M21,53.2969 L21,93.2969 L248,93.2969 L248,63.2969 L238,53.2969 L21,53.2969 " fill="#FBFB77" filter="url(#fbwxt2guw8w62)" style="stroke: #A80036; stroke-width: 1.0;"/><path d="M238,53.2969 L238,63.2969 L248,63.2969 L238,53.2969 " fill="#FBFB77" style="stroke: #A80036; stroke-width: 1.0;"/><text fill="#000000" font-family="sans-serif" font-size="13" lengthAdjust="spacingAndGlyphs" textLength="110" x="27" y="70.3638">käyttäjä kirjoittaa</text><text fill="#000000" font-family="sans-serif" font-size="13" lengthAdjust="spacingAndGlyphs" textLength="206" x="27" y="85.4966">muistiinpanon ja painaa "talleta"</text><polygon fill="#A80036" points="320.5,119.6953,330.5,123.6953,320.5,127.6953,324.5,123.6953" style="stroke: #A80036; stroke-width: 1.0;"/><line style="stroke: #A80036; stroke-width: 1.0;" x1="136.5" x2="326.5" y1="123.6953" y2="123.6953"/><text fill="#000000" font-family="sans-serif" font-size="13" lengthAdjust="spacingAndGlyphs" textLength="172" x="143.5" y="118.6294">HTTP POST {muistiinpano}</text><polygon fill="#A80036" points="147.5,148.8281,137.5,152.8281,147.5,156.8281,143.5,152.8281" style="stroke: #A80036; stroke-width: 1.0;"/><line style="stroke: #A80036; stroke-width: 1.0; stroke-dasharray: 2.0,2.0;" x1="141.5" x2="331.5" y1="152.8281" y2="152.8281"/><text fill="#000000" font-family="sans-serif" font-size="13" lengthAdjust="spacingAndGlyphs" textLength="103" x="153.5" y="147.7622">HTTP 302 Found</text><path d="M243,165.8281 L243,205.8281 L417,205.8281 L417,175.8281 L407,165.8281 L243,165.8281 " fill="#FBFB77" filter="url(#fbwxt2guw8w62)" style="stroke: #A80036; stroke-width: 1.0;"/><path d="M407,165.8281 L407,175.8281 L417,175.8281 L407,165.8281 " fill="#FBFB77" style="stroke: #A80036; stroke-width: 1.0;"/><text fill="#000000" font-family="sans-serif" font-size="13" lengthAdjust="spacingAndGlyphs" textLength="153" x="249" y="182.895">palvelin ohjaa uudelleen</text><text fill="#000000" font-family="sans-serif" font-size="13" lengthAdjust="spacingAndGlyphs" textLength="83" x="249" y="198.0278">sivulle /notes</text><polygon fill="#A80036" points="320.5,232.2266,330.5,236.2266,320.5,240.2266,324.5,236.2266" style="stroke: #A80036; stroke-width: 1.0;"/><line style="stroke: #A80036; stroke-width: 1.0;" x1="136.5" x2="326.5" y1="236.2266" y2="236.2266"/><text fill="#000000" font-family="sans-serif" font-size="13" lengthAdjust="spacingAndGlyphs" textLength="105" x="143.5" y="231.1606">HTTP GET /notes</text><polygon fill="#A80036" points="147.5,261.3594,137.5,265.3594,147.5,269.3594,143.5,265.3594" style="stroke: #A80036; stroke-width: 1.0;"/><line style="stroke: #A80036; stroke-width: 1.0; stroke-dasharray: 2.0,2.0;" x1="141.5" x2="331.5" y1="265.3594" y2="265.3594"/><text fill="#000000" font-family="sans-serif" font-size="13" lengthAdjust="spacingAndGlyphs" textLength="133" x="153.5" y="260.2935">HTTP 200 notes.html</text><path d="M8,278.3594 L8,303.3594 L262,303.3594 L262,288.3594 L252,278.3594 L8,278.3594 " fill="#FBFB77" filter="url(#fbwxt2guw8w62)" style="stroke: #A80036; stroke-width: 1.0;"/><path d="M252,278.3594 L252,288.3594 L262,288.3594 L252,278.3594 " fill="#FBFB77" style="stroke: #A80036; stroke-width: 1.0;"/><text fill="#000000" font-family="sans-serif" font-size="13" lengthAdjust="spacingAndGlyphs" textLength="233" x="14" y="295.4263">ladataan html:ssä mainitut tiedostot</text><polygon fill="#A80036" points="320.5,329.625,330.5,333.625,320.5,337.625,324.5,333.625" style="stroke: #A80036; stroke-width: 1.0;"/><line style="stroke: #A80036; stroke-width: 1.0;" x1="136.5" x2="326.5" y1="333.625" y2="333.625"/><text fill="#000000" font-family="sans-serif" font-size="13" lengthAdjust="spacingAndGlyphs" textLength="122" x="143.5" y="328.5591">HTTP GET main.css</text><polygon fill="#A80036" points="147.5,358.7578,137.5,362.7578,147.5,366.7578,143.5,362.7578" style="stroke: #A80036; stroke-width: 1.0;"/><line style="stroke: #A80036; stroke-width: 1.0; stroke-dasharray: 2.0,2.0;" x1="141.5" x2="331.5" y1="362.7578" y2="362.7578"/><text fill="#000000" font-family="sans-serif" font-size="13" lengthAdjust="spacingAndGlyphs" textLength="121" x="153.5" y="357.6919">HTTP 200 main.css</text><polygon fill="#A80036" points="320.5,387.8906,330.5,391.8906,320.5,395.8906,324.5,391.8906" style="stroke: #A80036; stroke-width: 1.0;"/><line style="stroke: #A80036; stroke-width: 1.0;" x1="136.5" x2="326.5" y1="391.8906" y2="391.8906"/><text fill="#000000" font-family="sans-serif" font-size="13" lengthAdjust="spacingAndGlyphs" textLength="111" x="143.5" y="386.8247">HTTP GET main.js</text><polygon fill="#A80036" points="147.5,417.0234,137.5,421.0234,147.5,425.0234,143.5,421.0234" style="stroke: #A80036; stroke-width: 1.0;"/><line style="stroke: #A80036; stroke-width: 1.0; stroke-dasharray: 2.0,2.0;" x1="141.5" x2="331.5" y1="421.0234" y2="421.0234"/><text fill="#000000" font-family="sans-serif" font-size="13" lengthAdjust="spacingAndGlyphs" textLength="110" x="153.5" y="415.9575">HTTP 200 main.js</text><polygon fill="#A80036" points="320.5,446.1563,330.5,450.1563,320.5,454.1563,324.5,450.1563" style="stroke: #A80036; stroke-width: 1.0;"/><line style="stroke: #A80036; stroke-width: 1.0;" x1="136.5" x2="326.5" y1="450.1563" y2="450.1563"/><text fill="#000000" font-family="sans-serif" font-size="13" lengthAdjust="spacingAndGlyphs" textLength="124" x="143.5" y="445.0903">HTTP GET data.json</text><polygon fill="#A80036" points="147.5,475.2891,137.5,479.2891,147.5,483.2891,143.5,479.2891" style="stroke: #A80036; stroke-width: 1.0;"/><line style="stroke: #A80036; stroke-width: 1.0; stroke-dasharray: 2.0,2.0;" x1="141.5" x2="331.5" y1="479.2891" y2="479.2891"/><text fill="#000000" font-family="sans-serif" font-size="13" lengthAdjust="spacingAndGlyphs" textLength="123" x="153.5" y="474.2231">HTTP 200 data.json</text><!--
@startuml t4_uusi_muistiinpano_sekvenssi
note over asiakas : käyttäjä kirjoittaa\nmuistiinpanon ja painaa "talleta"
asiakas -> palvelin : HTTP POST {muistiinpano}
palvelin - -> asiakas : HTTP 302 Found
note over palvelin : palvelin ohjaa uudelleen\nsivulle /notes
asiakas -> palvelin : HTTP GET /notes
palvelin - -> asiakas : HTTP 200 notes.html
note over asiakas : ladataan html:ssä mainitut tiedostot
asiakas -> palvelin : HTTP GET main.css
palvelin - -> asiakas : HTTP 200 main.css
asiakas -> palvelin : HTTP GET main.js
palvelin - -> asiakas : HTTP 200 main.js
asiakas -> palvelin : HTTP GET data.json
palvelin - -> asiakas : HTTP 200 data.json
@enduml

PlantUML version 1.2019.03(Sun Mar 10 13:04:44 EET 2019)
(GPL source distribution)
Java Runtime: OpenJDK Runtime Environment
JVM: OpenJDK 64-Bit Server VM
Java Version: 1.8.0_212-b01
Operating System: Linux
OS Version: 4.14.111-1-MANJARO
Default Encoding: UTF-8
Language: en
Country: US
--></g></svg>