<?xml version="1.0" encoding="UTF-8" standalone="no"?><svg xmlns="http://www.w3.org/2000/svg" xmlns:xlink="http://www.w3.org/1999/xlink" contentScriptType="application/ecmascript" contentStyleType="text/css" height="483px" preserveAspectRatio="none" style="width:387px;height:483px;" version="1.1" viewBox="0 0 387 483" width="387px" zoomAndPan="magnify"><defs><filter height="300%" id="fg4bgt4ui2s8a" width="300%" x="-1" y="-1"><feGaussianBlur result="blurOut" stdDeviation="2.0"/><feColorMatrix in="blurOut" result="blurOut2" type="matrix" values="0 0 0 0 0 0 0 0 0 0 0 0 0 0 0 0 0 0 .4 0"/><feOffset dx="4.0" dy="4.0" in="blurOut2" result="blurOut3"/><feBlend in="SourceGraphic" in2="blurOut3" mode="normal"/></filter></defs><g><line style="stroke: #A80036; stroke-width: 1.0; stroke-dasharray: 5.0,5.0;" x1="176" x2="176" y1="38.2969" y2="443.0234"/><line style="stroke: #A80036; stroke-width: 1.0; stroke-dasharray: 5.0,5.0;" x1="345" x2="345" y1="38.2969" y2="443.0234"/><rect fill="#FEFECE" filter="url(#fg4bgt4ui2s8a)" height="30.2969" style="stroke: #A80036; stroke-width: 1.5;" width="65" x="142" y="3"/><text fill="#000000" font-family="sans-serif" font-size="14" lengthAdjust="spacingAndGlyphs" textLength="51" x="149" y="22.9951">asiakas</text><rect fill="#FEFECE" filter="url(#fg4bgt4ui2s8a)" height="30.2969" style="stroke: #A80036; stroke-width: 1.5;" width="65" x="142" y="442.0234"/><text fill="#000000" font-family="sans-serif" font-size="14" lengthAdjust="spacingAndGlyphs" textLength="51" x="149" y="462.0186">asiakas</text><rect fill="#FEFECE" filter="url(#fg4bgt4ui2s8a)" height="30.2969" style="stroke: #A80036; stroke-width: 1.5;" width="65" x="311" y="3"/><text fill="#000000" font-family="sans-serif" font-size="14" lengthAdjust="spacingAndGlyphs" textLength="51" x="318" y="22.9951">palvelin</text><rect fill="#FEFECE" filter="url(#fg4bgt4ui2s8a)" height="30.2969" style="stroke: #A80036; stroke-width: 1.5;" width="65" x="311" y="442.0234"/><text fill="#000000" font-family="sans-serif" font-size="14" lengthAdjust="spacingAndGlyphs" textLength="51" x="318" y="462.0186">palvelin</text><path d="M8,53.2969 L8,93.2969 L341,93.2969 L341,63.2969 L331,53.2969 L8,53.2969 " fill="#FBFB77" filter="url(#fg4bgt4ui2s8a)" style="stroke: #A80036; stroke-width: 1.0;"/><path d="M331,53.2969 L331,63.2969 L341,63.2969 L331,53.2969 " fill="#FBFB77" style="stroke: #A80036; stroke-width: 1.0;"/><text fill="#000000" font-family="sans-serif" font-size="13" lengthAdjust="spacingAndGlyphs" textLength="187" x="14" y="70.3638">käyttäjä menee osoitteeseen</text><text fill="#000000" font-family="sans-serif" font-size="13" lengthAdjust="spacingAndGlyphs" textLength="312" x="14" y="85.4966">https://fullstack-exampleapp.herokuapp.com/spa</text><polygon fill="#A80036" points="333.5,119.6953,343.5,123.6953,333.5,127.6953,337.5,123.6953" style="stroke: #A80036; stroke-width: 1.0;"/><line style="stroke: #A80036; stroke-width: 1.0;" x1="176.5" x2="339.5" y1="123.6953" y2="123.6953"/><text fill="#000000" font-family="sans-serif" font-size="13" lengthAdjust="spacingAndGlyphs" textLength="92" x="183.5" y="118.6294">HTTP GET /spa</text><polygon fill="#A80036" points="187.5,148.8281,177.5,152.8281,187.5,156.8281,183.5,152.8281" style="stroke: #A80036; stroke-width: 1.0;"/><line style="stroke: #A80036; stroke-width: 1.0; stroke-dasharray: 2.0,2.0;" x1="181.5" x2="344.5" y1="152.8281" y2="152.8281"/><text fill="#000000" font-family="sans-serif" font-size="13" lengthAdjust="spacingAndGlyphs" textLength="142" x="193.5" y="147.7622">HTTP 200 OK spa.html</text><path d="M47,165.8281 L47,190.8281 L301,190.8281 L301,175.8281 L291,165.8281 L47,165.8281 " fill="#FBFB77" filter="url(#fg4bgt4ui2s8a)" style="stroke: #A80036; stroke-width: 1.0;"/><path d="M291,165.8281 L291,175.8281 L301,175.8281 L291,165.8281 " fill="#FBFB77" style="stroke: #A80036; stroke-width: 1.0;"/><text fill="#000000" font-family="sans-serif" font-size="13" lengthAdjust="spacingAndGlyphs" textLength="233" x="53" y="182.895">ladataan html:ssä mainitut tiedostot</text><polygon fill="#A80036" points="333.5,217.0938,343.5,221.0938,333.5,225.0938,337.5,221.0938" style="stroke: #A80036; stroke-width: 1.0;"/><line style="stroke: #A80036; stroke-width: 1.0;" x1="176.5" x2="339.5" y1="221.0938" y2="221.0938"/><text fill="#000000" font-family="sans-serif" font-size="13" lengthAdjust="spacingAndGlyphs" textLength="122" x="183.5" y="216.0278">HTTP GET main.css</text><polygon fill="#A80036" points="187.5,246.2266,177.5,250.2266,187.5,254.2266,183.5,250.2266" style="stroke: #A80036; stroke-width: 1.0;"/><line style="stroke: #A80036; stroke-width: 1.0; stroke-dasharray: 2.0,2.0;" x1="181.5" x2="344.5" y1="250.2266" y2="250.2266"/><text fill="#000000" font-family="sans-serif" font-size="13" lengthAdjust="spacingAndGlyphs" textLength="143" x="193.5" y="245.1606">HTTP 200 OK main.css</text><polygon fill="#A80036" points="333.5,275.3594,343.5,279.3594,333.5,283.3594,337.5,279.3594" style="stroke: #A80036; stroke-width: 1.0;"/><line style="stroke: #A80036; stroke-width: 1.0;" x1="176.5" x2="339.5" y1="279.3594" y2="279.3594"/><text fill="#000000" font-family="sans-serif" font-size="13" lengthAdjust="spacingAndGlyphs" textLength="102" x="183.5" y="274.2935">HTTP GET spa.js</text><polygon fill="#A80036" points="187.5,304.4922,177.5,308.4922,187.5,312.4922,183.5,308.4922" style="stroke: #A80036; stroke-width: 1.0;"/><line style="stroke: #A80036; stroke-width: 1.0; stroke-dasharray: 2.0,2.0;" x1="181.5" x2="344.5" y1="308.4922" y2="308.4922"/><text fill="#000000" font-family="sans-serif" font-size="13" lengthAdjust="spacingAndGlyphs" textLength="123" x="193.5" y="303.4263">HTTP 200 OK spa.js</text><polygon fill="#A80036" points="333.5,333.625,343.5,337.625,333.5,341.625,337.5,337.625" style="stroke: #A80036; stroke-width: 1.0;"/><line style="stroke: #A80036; stroke-width: 1.0;" x1="176.5" x2="339.5" y1="337.625" y2="337.625"/><text fill="#000000" font-family="sans-serif" font-size="13" lengthAdjust="spacingAndGlyphs" textLength="124" x="183.5" y="332.5591">HTTP GET data.json</text><polygon fill="#A80036" points="187.5,362.7578,177.5,366.7578,187.5,370.7578,183.5,366.7578" style="stroke: #A80036; stroke-width: 1.0;"/><line style="stroke: #A80036; stroke-width: 1.0; stroke-dasharray: 2.0,2.0;" x1="181.5" x2="344.5" y1="366.7578" y2="366.7578"/><text fill="#000000" font-family="sans-serif" font-size="13" lengthAdjust="spacingAndGlyphs" textLength="145" x="193.5" y="361.6919">HTTP 200 OK data.json</text><polygon fill="#A80036" points="333.5,391.8906,343.5,395.8906,333.5,399.8906,337.5,395.8906" style="stroke: #A80036; stroke-width: 1.0;"/><line style="stroke: #A80036; stroke-width: 1.0;" x1="176.5" x2="339.5" y1="395.8906" y2="395.8906"/><text fill="#000000" font-family="sans-serif" font-size="13" lengthAdjust="spacingAndGlyphs" textLength="132" x="183.5" y="390.8247">HTTP GET favicon.ico</text><polygon fill="#A80036" points="187.5,421.0234,177.5,425.0234,187.5,429.0234,183.5,425.0234" style="stroke: #A80036; stroke-width: 1.0;"/><line style="stroke: #A80036; stroke-width: 1.0; stroke-dasharray: 2.0,2.0;" x1="181.5" x2="344.5" y1="425.0234" y2="425.0234"/><text fill="#FF0000" font-family="sans-serif" font-size="13" lengthAdjust="spacingAndGlyphs" textLength="130" x="193.5" y="419.9575">HTTP 404 Not Found</text><!--
@startuml t5_uusi_muistiinpano_spa
note over asiakas : käyttäjä menee osoitteeseen\nhttps://fullstack-exampleapp.herokuapp.com/spa
asiakas -> palvelin : HTTP GET /spa
palvelin - -> asiakas : HTTP 200 OK spa.html
note over asiakas : ladataan html:ssä mainitut tiedostot
asiakas -> palvelin : HTTP GET main.css
palvelin - -> asiakas : HTTP 200 OK main.css
asiakas -> palvelin : HTTP GET spa.js
palvelin - -> asiakas : HTTP 200 OK spa.js
asiakas -> palvelin : HTTP GET data.json
palvelin - -> asiakas : HTTP 200 OK data.json
asiakas -> palvelin : HTTP GET favicon.ico
palvelin - -> asiakas : <color red>HTTP 404 Not Found</color>
@enduml

PlantUML version 1.2019.03(Sun Mar 10 13:04:44 EET 2019)
(GPL source distribution)
Java Runtime: OpenJDK Runtime Environment
JVM: OpenJDK 64-Bit Server VM
Java Version: 1.8.0_212-b01
Operating System: Linux
OS Version: 4.14.111-1-MANJARO
Default Encoding: UTF-8
Language: en
Country: US
--></g></svg>